<svg width="21" height="20" viewBox="0 0 21 20" fill="none" xmlns="http://www.w3.org/2000/svg">
<rect width="21" height="20" rx="3" fill="white"/>
<mask id="mask0_571_29" style="mask-type:alpha" maskUnits="userSpaceOnUse" x="3" y="3" width="16" height="15">
<rect x="3" y="3" width="16" height="15" fill="#787575"/>
</mask>
<g mask="url(#mask0_571_29)">
<path d="M16.344 11.864C16.92 12.08 17.372 12.4 17.7 12.824C18.036 13.24 18.204 13.708 18.204 14.228C18.204 14.732 17.984 15.208 17.544 15.656C17.112 16.096 16.572 16.448 15.924 16.712C15.276 16.976 14.656 17.108 14.064 17.108C13.664 17.108 13.272 17.088 12.888 17.048C12.248 17.008 11.752 16.988 11.4 16.988H9.576V16.316L10.704 15.428V8.684L9.372 8.336L9.768 7.556H11.388C12.116 7.556 12.832 7.532 13.536 7.484C14.08 7.452 14.48 7.436 14.736 7.436C15.328 7.436 15.848 7.54 16.296 7.748C16.752 7.956 17.104 8.24 17.352 8.6C17.6 8.952 17.724 9.348 17.724 9.788C17.724 10.18 17.596 10.556 17.34 10.916C17.092 11.276 16.76 11.596 16.344 11.876V11.864ZM15.42 10.424C15.42 9.848 15.284 9.384 15.012 9.032C14.74 8.68 14.336 8.504 13.8 8.504C13.472 8.504 13.164 8.572 12.876 8.708V11.792H14.22C14.612 11.792 14.908 11.676 15.108 11.444C15.316 11.212 15.42 10.872 15.42 10.424ZM14.412 15.92C14.876 15.92 15.24 15.8 15.504 15.56C15.776 15.32 15.912 14.992 15.912 14.576C15.912 14.032 15.76 13.588 15.456 13.244C15.16 12.892 14.716 12.7 14.124 12.668H13.884H12.876V15.656C13.332 15.832 13.84 15.92 14.4 15.92H14.412Z" fill="#CC5476"/>
<path d="M10.344 7.864C10.92 8.08 11.372 8.4 11.7 8.824C12.036 9.24 12.204 9.708 12.204 10.228C12.204 10.732 11.984 11.208 11.544 11.656C11.112 12.096 10.572 12.448 9.924 12.712C9.276 12.976 8.656 13.108 8.064 13.108C7.664 13.108 7.272 13.088 6.888 13.048C6.248 13.008 5.752 12.988 5.4 12.988H3.576V12.316L4.704 11.428V4.684L3.372 4.336L3.768 3.556H5.388C6.116 3.556 6.832 3.532 7.536 3.484C8.08 3.452 8.48 3.436 8.736 3.436C9.328 3.436 9.848 3.54 10.296 3.748C10.752 3.956 11.104 4.24 11.352 4.6C11.6 4.952 11.724 5.348 11.724 5.788C11.724 6.18 11.596 6.556 11.34 6.916C11.092 7.276 10.76 7.596 10.344 7.876V7.864ZM9.42 6.424C9.42 5.848 9.284 5.384 9.012 5.032C8.74 4.68 8.336 4.504 7.8 4.504C7.472 4.504 7.164 4.572 6.876 4.708V7.792H8.22C8.612 7.792 8.908 7.676 9.108 7.444C9.316 7.212 9.42 6.872 9.42 6.424ZM8.412 11.92C8.876 11.92 9.24 11.8 9.504 11.56C9.776 11.32 9.912 10.992 9.912 10.576C9.912 10.032 9.76 9.588 9.456 9.244C9.16 8.892 8.716 8.7 8.124 8.668H7.884H6.876V11.656C7.332 11.832 7.84 11.92 8.4 11.92H8.412Z" fill="#CC5476"/>
</g>
</svg>
