<svg width="16" height="15" viewBox="0 0 16 15" fill="none" xmlns="http://www.w3.org/2000/svg">
<mask id="mask0_576_44" style="mask-type:alpha" maskUnits="userSpaceOnUse" x="0" y="0" width="16" height="15">
<rect width="16" height="15" fill="#787575"/>
</mask>
<g mask="url(#mask0_576_44)">
<path d="M13.344 8.864C13.92 9.08 14.372 9.4 14.7 9.824C15.036 10.24 15.204 10.708 15.204 11.228C15.204 11.732 14.984 12.208 14.544 12.656C14.112 13.096 13.572 13.448 12.924 13.712C12.276 13.976 11.656 14.108 11.064 14.108C10.664 14.108 10.272 14.088 9.888 14.048C9.248 14.008 8.752 13.988 8.4 13.988H6.576V13.316L7.704 12.428V5.684L6.372 5.336L6.768 4.556H8.388C9.116 4.556 9.832 4.532 10.536 4.484C11.08 4.452 11.48 4.436 11.736 4.436C12.328 4.436 12.848 4.54 13.296 4.748C13.752 4.956 14.104 5.24 14.352 5.6C14.6 5.952 14.724 6.348 14.724 6.788C14.724 7.18 14.596 7.556 14.34 7.916C14.092 8.276 13.76 8.596 13.344 8.876V8.864ZM12.42 7.424C12.42 6.848 12.284 6.384 12.012 6.032C11.74 5.68 11.336 5.504 10.8 5.504C10.472 5.504 10.164 5.572 9.876 5.708V8.792H11.22C11.612 8.792 11.908 8.676 12.108 8.444C12.316 8.212 12.42 7.872 12.42 7.424ZM11.412 12.92C11.876 12.92 12.24 12.8 12.504 12.56C12.776 12.32 12.912 11.992 12.912 11.576C12.912 11.032 12.76 10.588 12.456 10.244C12.16 9.892 11.716 9.7 11.124 9.668H10.884H9.876V12.656C10.332 12.832 10.84 12.92 11.4 12.92H11.412Z" fill="#F75D4A"/>
<path d="M7.344 4.864C7.92 5.08 8.372 5.4 8.7 5.824C9.036 6.24 9.204 6.708 9.204 7.228C9.204 7.732 8.984 8.208 8.544 8.656C8.112 9.096 7.572 9.448 6.924 9.712C6.276 9.976 5.656 10.108 5.064 10.108C4.664 10.108 4.272 10.088 3.888 10.048C3.248 10.008 2.752 9.988 2.4 9.988H0.576V9.316L1.704 8.428V1.684L0.372 1.336L0.768 0.555999H2.388C3.116 0.555999 3.832 0.531999 4.536 0.483999C5.08 0.451999 5.48 0.435999 5.736 0.435999C6.328 0.435999 6.848 0.539999 7.296 0.748C7.752 0.955999 8.104 1.24 8.352 1.6C8.6 1.952 8.724 2.348 8.724 2.788C8.724 3.18 8.596 3.556 8.34 3.916C8.092 4.276 7.76 4.596 7.344 4.876V4.864ZM6.42 3.424C6.42 2.848 6.284 2.384 6.012 2.032C5.74 1.68 5.336 1.504 4.8 1.504C4.472 1.504 4.164 1.572 3.876 1.708V4.792H5.22C5.612 4.792 5.908 4.676 6.108 4.444C6.316 4.212 6.42 3.872 6.42 3.424ZM5.412 8.92C5.876 8.92 6.24 8.8 6.504 8.56C6.776 8.32 6.912 7.992 6.912 7.576C6.912 7.032 6.76 6.588 6.456 6.244C6.16 5.892 5.716 5.7 5.124 5.668H4.884H3.876V8.656C4.332 8.832 4.84 8.92 5.4 8.92H5.412Z" fill="#F75D4A"/>
</g>
</svg>
